Coordinates
version=1
nRows=9
nColumns=63
inDegrees=yes

Units are S.I. units (second, meters, Newtons, ...)
If the header above contains a line with 'inDegrees', this indicates whether rotational values are in degrees (yes) or radians (no).

endheader
time	pelvis_tilt	pelvis_list	pelvis_rotation	pelvis_tx	pelvis_ty	pelvis_tz	hip_flexion_r	hip_adduction_r	hip_rotation_r	knee_angle_r	knee_angle_r_beta	ankle_angle_r	subtalar_angle_r	mtp_angle_r	hip_flexion_l	hip_adduction_l	hip_rotation_l	knee_angle_l	knee_angle_l_beta	ankle_angle_l	subtalar_angle_l	mtp_angle_l	L5_S1_Flex_Ext	L5_S1_Lat_Bending	L5_S1_axial_rotation	L4_L5_Flex_Ext	L4_L5_Lat_Bending	L4_L5_axial_rotation	L3_L4_Flex_Ext	L3_L4_Lat_Bending	L3_L4_axial_rotation	L2_L3_Flex_Ext	L2_L3_Lat_Bending	L2_L3_axial_rotation	L1_L2_Flex_Ext	L1_L2_Lat_Bending	L1_L2_axial_rotation	L1_T12_Flex_Ext	L1_T12_Lat_Bending	L1_T12_axial_rotation	Abs_r3	Abs_r2	Abs_r1	Abs_t1	Abs_t2	neck_flexion	neck_bending	neck_rotation	arm_flex_r	arm_add_r	arm_rot_r	elbow_flex_r	pro_sup_r	wrist_flex_r	wrist_dev_r	arm_flex_l	arm_add_l	arm_rot_l	elbow_flex_l	pro_sup_l	wrist_flex_l	wrist_dev_l
0.772727	-1.119636	-2.133527	87.007223	0.309507	0.766757	0.653239	15.953143	-0.516092	16.168190	21.436749	0.374142	27.351824	-15.154924	0.000000	9.908120	0.740742	-1.876252	11.172161	0.194991	30.470568	0.366246	0.000000	-0.493341	0.109676	-0.448469	-0.916183	0.145869	-0.476498	-0.810510	0.266666	-0.476498	-0.563839	0.266666	-0.392410	-0.458116	0.223651	-0.364381	-0.281895	0.169888	-0.336352	-3.523885	1.240678	-2.494250	0.000000	0.000000	-3.310214	-5.123182	21.019043	87.680694	-8.463990	7.494529	129.987787	86.475033	-12.235136	13.681712	76.573524	-44.514642	-19.513226	149.080163	83.562086	-13.865734	25.084380
0.795455	-1.269915	-2.266927	86.710508	0.312148	0.764949	0.652672	16.579022	-0.332611	16.736260	22.417365	0.391257	27.796637	-15.550304	0.000000	10.769521	0.610237	-3.407981	12.759072	0.222688	31.489461	1.314621	0.000000	-0.533097	0.088750	-0.280812	-0.990014	0.118038	-0.298363	-0.875824	0.215787	-0.298363	-0.609276	0.215787	-0.245711	-0.495033	0.180979	-0.228160	-0.304611	0.137474	-0.210609	-3.807855	1.003959	-1.561793	0.000000	0.000000	-4.119524	-5.436950	20.759010	90.284058	-7.802084	8.548167	130.555209	85.935669	-13.009889	15.393435	80.477393	-44.471940	-17.974410	149.413203	83.437399	-12.395911	27.783449
0.818182	-1.457140	-2.371620	86.458619	0.315055	0.762717	0.652326	17.242310	-0.148627	17.221532	23.510253	0.410331	28.403001	-15.852143	0.000000	11.703057	0.479346	-4.794175	14.510769	0.253261	32.599743	2.168901	0.000000	-0.572427	0.053316	-0.050388	-1.063055	0.070911	-0.053537	-0.940441	0.129633	-0.053537	-0.654227	0.129633	-0.044089	-0.531556	0.108723	-0.040940	-0.327085	0.082587	-0.037791	-4.088792	0.603125	-0.280241	0.000000	0.000000	-4.942948	-5.567198	19.861421	91.754679	-7.501447	9.133692	131.344667	85.329488	-13.557892	17.238879	83.827791	-43.870802	-15.838064	149.356213	83.320436	-10.932625	30.237485
0.840909	-1.718954	-2.449166	86.235822	0.318283	0.760030	0.652167	17.960530	0.012036	17.694005	24.730520	0.431629	29.190156	-16.103396	0.000000	12.678560	0.384014	-6.035776	16.353795	0.285428	33.769497	2.901420	0.000000	-0.608809	-0.003754	0.223010	-1.130619	-0.004993	0.236948	-1.000212	-0.009128	0.236948	-0.695808	-0.009128	0.195134	-0.565340	-0.007656	0.181196	-0.347873	-0.005816	0.167258	-4.348662	-0.042470	1.240316	0.000000	0.000000	-5.773614	-5.426877	18.415217	92.169388	-7.543685	9.249403	132.385623	84.736567	-13.817110	19.054869	86.475608	-42.744746	-13.353515	149.095488	83.147714	-9.514119	32.066511
0.863636	-2.050117	-2.481292	86.008240	0.321843	0.756933	0.652162	18.714619	0.151973	18.165070	26.074981	0.455094	30.162056	-16.262047	0.000000	13.644887	0.321403	-7.134278	18.234224	0.318247	34.973751	3.471839	0.000000	-0.645780	-0.081084	0.517474	-1.199278	-0.107842	0.549816	-1.060952	-0.197149	0.549816	-0.738062	-0.197149	0.452789	-0.599671	-0.165347	0.420447	-0.368999	-0.125600	0.388105	-4.612740	-0.917243	2.878034	0.000000	0.000000	-6.556518	-5.030128	16.619865	91.746739	-7.837013	8.985759	133.610702	84.215074	-13.811768	20.694708	88.320524	-41.199285	-10.845594	148.845973	82.738364	-8.255055	33.008897
0.886364	-2.425771	-2.490976	85.776937	0.325634	0.753538	0.652190	19.499345	0.279336	18.625197	27.501838	0.479998	31.276623	-16.326907	0.000000	14.586361	0.282584	-8.063057	20.092021	0.350672	36.175723	3.853751	0.000000	-0.679450	-0.172908	0.809081	-1.261807	-0.229967	0.859648	-1.116269	-0.420408	0.859648	-0.776544	-0.420408	0.707946	-0.630938	-0.352594	0.657378	-0.388238	-0.267834	0.606811	-4.853246	-1.955967	4.499865	0.000000	0.000000	-7.274125	-4.445417	14.674905	90.686737	-8.290196	8.450092	134.945574	83.776345	-13.658658	22.052633	89.336982	-39.338432	-8.708768	148.762532	82.067597	-7.140109	32.919009
0.909091	-2.814416	-2.485581	85.521756	0.329553	0.750031	0.652160	20.286865	0.408389	19.079294	28.956918	0.505394	32.471941	-16.296269	0.000000	15.459344	0.250826	-8.810570	21.849189	0.381340	37.317234	4.007291	0.000000	-0.709887	-0.271375	1.081635	-1.318331	-0.360928	1.149237	-1.166273	-0.659821	1.149237	-0.811330	-0.659821	0.946430	-0.659201	-0.553387	0.878828	-0.405629	-0.420360	0.811226	-5.070650	-3.069846	6.015728	0.000000	0.000000	-7.886979	-3.756432	12.789817	89.170181	-8.795973	7.716123	136.339196	83.451362	-13.415422	23.157786	89.661669	-37.364428	-7.184293	148.864168	81.098487	-6.400769	31.612292
0.931818	-3.183378	-2.474037	85.302248	0.333397	0.746615	0.652004	21.033665	0.536767	19.477885	30.367169	0.530007	33.674324	-16.228530	0.000000	16.242495	0.226180	-9.291741	23.448322	0.409250	38.344713	3.904451	0.000000	-0.736148	-0.369598	1.315205	-1.367101	-0.491566	1.397405	-1.209418	-0.898641	1.397405	-0.841344	-0.898641	1.150804	-0.683587	-0.753685	1.068604	-0.420635	-0.572508	0.986404	-5.258233	-4.180970	7.314776	0.000000	0.000000	-8.393320	-3.033820	11.065631	87.353467	-9.296229	6.830793	137.758764	83.268916	-13.163755	24.023074	89.541265	-35.442808	-6.309945	149.086083	80.251723	-6.180991	29.374072
0.954545	-3.498265	-2.453505	85.140913	0.336991	0.743513	0.651649	21.683321	0.670978	19.810504	31.654479	0.552475	34.798886	-16.189539	0.000000	16.901504	0.197642	-9.528778	24.833895	0.433433	39.237975	3.626445	0.000000	-0.758990	-0.459487	1.503886	-1.409521	-0.611118	1.597878	-1.246945	-1.117197	1.597878	-0.867450	-1.117197	1.315900	-0.704798	-0.936987	1.221907	-0.433687	-0.711746	1.127914	-5.421390	-5.197812	8.364161	0.000000	0.000000	-8.780125	-2.372074	9.583073	85.420982	-9.754397	5.875665	139.129394	83.246097	-12.955959	24.628601	89.209415	-33.726061	-5.996832	149.397077	79.750100	-6.432256	26.893395
